<svg viewBox="0 0 1054.412 1045.334"  fill="#57534e" xmlns="http://www.w3.org/2000/svg"><path d="M528.332 584.624h-36.178V549.71c-.003-.58-.005-1.265-.005-1.952 0-98.315 39.668-187.365 103.873-252.017L814.337 77.428c23.573-23.59 56.15-38.183 92.132-38.183 71.93 0 130.244 58.313 130.244 130.245 0 35.948-14.564 68.495-38.114 92.062L781.11 480.915c-64.56 64.096-153.502 103.71-251.696 103.71l-1.14-.003h.06zm378.23-475.986h-.022c-16.518 0-31.447 6.798-42.144 17.75L645.77 345.155c-43.313 43.682-72.702 101.23-80.923 165.4l-.15 1.43c65.61-8.368 123.162-37.777 166.85-81.136l-.02.016 217.82-219.693c10.972-10.658 17.78-25.552 17.78-42.036s-6.81-31.378-17.767-42.022l-.764-.764c-10.687-10.917-25.568-17.692-42.032-17.713h-.004zm-379.355 936.695L378.605 896.73H214.163C95.938 896.6.133 800.794 0 682.58V235.497C0 117.216 95.884 21.333 214.163 21.333h447.072v70.294H214.163c-79.457 0-143.87 64.412-143.87 143.87v447.07c.08 79.425 64.446 143.79 143.862 143.87h193.598L527.206 945.89 646.66 826.437h193.59c79.423-.08 143.788-64.445 143.868-143.86V414.043h70.294v268.524c-.133 118.225-95.938 214.03-214.15 214.163H675.807z"/></svg>